<svg width="80" height="130" viewBox="0 0 80 130" fill="none" xmlns="http://www.w3.org/2000/svg">
<path d="M9.31587 32.7831L10.2539 29.0225C10.4116 28.3903 10.4913 27.7413 10.4913 27.0899C10.4913 25.5513 10.0451 24.0428 9.2096 22.7509C8.92239 22.3068 8.59124 21.8913 8.22221 21.5124L7.87307 21.154C7.14149 20.4029 6.53079 19.5429 6.06272 18.6047C5.68615 17.8498 5.40521 17.051 5.2264 16.2266L5.00589 15.21L4.88209 13.9279C4.76951 12.7619 4.85263 11.5853 5.12802 10.4468C5.37177 9.43908 5.76329 8.47297 6.28986 7.57986L6.76906 6.76708L7.82728 5.24248C8.16614 4.75429 8.5424 4.29317 8.95269 3.86327L9.12605 3.68163C10.0278 2.73677 11.1029 1.97426 12.2928 1.43569C13.1126 1.06465 13.9779 0.803924 14.8662 0.660331L14.9814 0.641709C16.0313 0.471993 17.1002 0.454636 18.155 0.590176L19.3919 0.749104C20.0513 0.833832 20.6979 0.99874 21.3173 1.24017C21.8694 1.45534 22.3964 1.72994 22.889 2.05911L23.0121 2.14133C23.6095 2.54048 24.1598 3.00592 24.6525 3.52879L25.5763 4.50909L26.5743 5.39827C27.0816 5.85019 27.6528 6.22482 28.2694 6.51005C29.33 7.00063 30.4976 7.21418 31.6631 7.13075L36.743 6.76708H43.7957L48.498 7.12411C49.6484 7.21146 50.7995 6.96341 51.8118 6.41C52.2131 6.19064 52.5878 5.92588 52.9286 5.62092L55.1584 3.62553L56.6014 2.54082C57.4622 1.89377 58.4219 1.38992 59.4432 1.04869L59.6845 0.968079C60.547 0.679961 61.4503 0.533064 62.3595 0.533064C62.8149 0.533064 63.2695 0.569906 63.7189 0.643232L63.8664 0.66729C64.7186 0.806324 65.5498 1.0521 66.3406 1.39883L66.717 1.56389L67.2195 1.8386C68.319 2.43968 69.3636 3.13618 70.3413 3.92005L70.526 4.11117C71.4128 5.02858 72.2042 6.03356 72.8881 7.11069L73.2043 7.69706C73.6456 8.51526 74.0116 9.37187 74.2978 10.2563L74.4998 10.8806C74.8598 11.9929 75.0431 13.1547 75.0431 14.3238V14.5667C75.0431 15.7068 74.8442 16.8381 74.4554 17.9098L74.1631 18.7152C73.9664 19.2574 73.7302 19.7845 73.4564 20.2922L73.269 20.6396C73.0157 21.1092 72.7156 21.552 72.3731 21.9612L72.0955 22.293C71.7767 22.6739 71.4031 23.0054 70.9869 23.2765L70.7582 23.4255C70.0407 23.8929 69.4852 24.5707 69.1678 25.3659C68.9724 25.8557 68.872 26.3781 68.872 26.9054V27.6857C68.872 28.268 68.9339 28.8486 69.0567 29.4178L69.6556 32.194L70.6352 36.3173L70.9051 38.8066C71.051 40.1519 71.0193 41.5105 70.8109 42.8476C70.6939 43.5981 70.5216 44.3389 70.2955 45.064L70.2644 45.1639C69.86 46.4608 69.3003 47.704 68.5973 48.8665L67.6965 50.3561L66.4325 52.0261C65.8637 52.7775 65.6291 53.7298 65.7837 54.6593C65.8818 55.2491 66.1322 55.8029 66.5103 56.2661L67.6965 57.7191L69.1677 59.4394C70.1429 60.5796 70.9866 61.8261 71.6828 63.1552L71.7597 63.302C72.3795 64.4853 72.8691 65.7323 73.2198 67.0212C73.6498 68.6012 73.8676 70.2314 73.8676 71.8689V73.3244C73.8676 73.9154 73.8219 74.5056 73.7309 75.0896L73.6068 75.8852C73.4557 76.8547 73.1141 77.7847 72.6017 78.6215L72.2954 79.1219C72.1362 79.3818 71.9415 79.6181 71.7168 79.824C70.8645 80.605 70.4889 81.7786 70.7293 82.9093L70.978 84.0787L72.0555 87.4166L72.6922 90.9018C73.1429 93.6122 74.228 96.1778 75.8588 98.3891L76.7083 99.5411L77.7524 101.401C78.2301 102.253 78.6067 103.157 78.8743 104.096C79.1274 104.983 79.2815 105.897 79.3337 106.818L79.5 109.751V112.5L79.2551 116.034L79.09 116.862C78.681 118.911 77.9049 120.87 76.799 122.643L76.3918 123.296C75.8219 124.21 75.1291 125.041 74.333 125.767C73.6981 126.345 73.0019 126.852 72.2566 127.279L71.6919 127.603C70.9888 128.005 70.2509 128.344 69.4871 128.614C68.0427 129.125 66.5219 129.386 64.9898 129.386H64.1763C62.7406 129.386 61.3099 129.216 59.914 128.88L59.2541 128.722C57.8327 128.38 56.4455 127.908 55.1101 127.314L53.5911 126.637L53.0086 126.272C51.3234 125.216 49.4487 124.499 47.4892 124.161C46.6284 124.012 45.7564 123.937 44.8828 123.937H34.0602C33.2716 123.937 32.4852 124.022 31.7147 124.19L31.5741 124.22C30.2021 124.519 28.9055 125.095 27.7637 125.912C27.0915 126.394 26.3639 126.792 25.5965 127.1L24.3622 127.595C23.3446 128.003 22.2971 128.332 21.229 128.579L19.7078 128.931C18.4001 129.233 17.0623 129.386 15.7201 129.386H15.0152C13.576 129.386 12.1463 129.153 10.7813 128.697C9.80758 128.372 8.87463 127.936 8.00087 127.397L7.96358 127.374C7.1693 126.884 6.42699 126.314 5.74815 125.674L4.92606 124.898C3.94036 123.969 3.10423 122.892 2.44729 121.707C1.8058 120.55 1.34258 119.302 1.07329 118.007L0.895669 117.152C0.632583 115.887 0.5 114.597 0.5 113.305V112.107V109.358V107.227C0.5 106.039 0.70387 104.859 1.10274 103.74C1.35321 103.037 1.67869 102.363 2.07353 101.73L3.43862 99.5411L4.73536 97.1379C5.59536 95.5442 6.18339 93.8181 6.4752 92.0308L7.50372 87.7111L8.38531 84.0296L8.56704 83.3394C9.03773 81.5518 8.62795 79.6468 7.46382 78.2108C7.00476 77.6446 6.65659 76.9969 6.43752 76.3016L6.11912 75.2911C5.77083 74.1857 5.59361 73.0335 5.59361 71.8746V70.678C5.78913 68.6859 6.16354 66.7154 6.71232 64.7903L6.76906 64.5913C7.35402 62.9953 8.15511 61.4871 9.14992 60.1089L9.31587 59.879L11.8107 57.1947C12.3592 56.6046 12.7526 55.8875 12.9555 55.1078C13.3183 53.7139 13.0449 52.231 12.209 51.0581L11.8296 50.5258C11.656 50.2821 11.5 50.0263 11.3629 49.7603L10.0505 47.2146L9.41943 46.0469C8.99261 45.2571 8.65685 44.4214 8.41862 43.5559L8.39227 43.4602C8.12762 42.4987 7.99349 41.5059 7.99349 40.5087C7.99349 39.7779 8.06552 39.0488 8.20854 38.3321L9.31587 32.7831Z" fill="#CCFF00" stroke="black"/>
</svg>
