<svg width="112" height="53" viewBox="0 0 112 53" fill="none" xmlns="http://www.w3.org/2000/svg">
<g filter="url(#filter0_n_3_138)">
<mask id="mask0_3_138" style="mask-type:alpha" maskUnits="userSpaceOnUse" x="0" y="0" width="112" height="53">
<path d="M10.2184 10.7787C18.3574 41.742 31.901 46.877 56.6345 26.3378" stroke="#FF4772" stroke-width="21" stroke-linecap="round"/>
<path d="M91.6553 44.0287C93.2392 49.8647 98.9131 53.6485 104.328 52.4801C109.743 51.3117 112.849 45.6335 111.265 39.7975L101.46 41.9131L91.6553 44.0287ZM54.042 14.3443L46.2752 20.6068L59.5474 38.1476L67.3142 31.8852L60.6781 23.1148L54.042 14.3443ZM101.46 41.9131L111.265 39.7975C109.398 32.9165 107.195 26.3548 104.351 20.7818C101.535 15.2609 97.5986 9.73963 91.8463 6.25315C79.3459 -1.32337 66.1464 4.58452 54.042 14.3443L60.6781 23.1148L67.3142 31.8852C79.0738 22.4034 82.7139 24.6249 82.8628 24.7152C83.4352 25.0621 84.7762 26.2126 86.5434 29.6764C88.284 33.0881 89.9714 37.8242 91.6553 44.0287L101.46 41.9131Z" fill="#F5DE5D"/>
</mask>
<g mask="url(#mask0_3_138)">
<rect x="-17.3117" y="-1.66773" width="144" height="69" fill="url(#paint0_radial_3_138)"/>
</g>
</g>
<circle cx="4.68832" cy="9.33227" r="4" fill="white"/>
<circle cx="13.6883" cy="7.33227" r="4" fill="white"/>
<circle cx="4.68832" cy="11.3323" r="2" fill="black"/>
<circle cx="13.6883" cy="5.33227" r="2" fill="black"/>
<defs>
<filter id="filter0_n_3_138" x="0" y="0" width="111.679" height="52.6919" filterUnits="userSpaceOnUse" color-interpolation-filters="sRGB">
<feFlood flood-opacity="0" result="BackgroundImageFix"/>
<feBlend mode="normal" in="SourceGraphic" in2="BackgroundImageFix" result="shape"/>
<feTurbulence type="fractalNoise" baseFrequency="2 2" stitchTiles="stitch" numOctaves="3" result="noise" seed="8912" />
<feColorMatrix in="noise" type="luminanceToAlpha" result="alphaNoise" />
<feComponentTransfer in="alphaNoise" result="coloredNoise1">
<feFuncA type="discrete" tableValues="1 1 1 1 1 1 1 1 1 1 1 1 1 1 1 1 1 1 1 1 1 1 1 1 1 1 1 1 1 1 1 1 1 1 1 1 1 1 1 1 1 1 1 1 1 1 1 1 1 1 1 0 0 0 0 0 0 0 0 0 0 0 0 0 0 0 0 0 0 0 0 0 0 0 0 0 0 0 0 0 0 0 0 0 0 0 0 0 0 0 0 0 0 0 0 0 0 0 0 0 "/>
</feComponentTransfer>
<feComposite operator="in" in2="shape" in="coloredNoise1" result="noise1Clipped" />
<feFlood flood-color="rgba(85, 83, 83, 0.25)" result="color1Flood" />
<feComposite operator="in" in2="noise1Clipped" in="color1Flood" result="color1" />
<feMerge result="effect1_noise_3_138">
<feMergeNode in="shape" />
<feMergeNode in="color1" />
</feMerge>
</filter>
<radialGradient id="paint0_radial_3_138" cx="0" cy="0" r="1" gradientUnits="userSpaceOnUse" gradientTransform="translate(10.1883 33.3323) rotate(-6.97493) scale(94.7008 197.637)">
<stop stop-color="#4AF05E"/>
<stop offset="0.431174" stop-color="#4AF05E"/>
<stop offset="0.565132" stop-color="#FB9344"/>
<stop offset="1" stop-color="#FB9344"/>
</radialGradient>
</defs>
</svg>
